<svg width="108" height="147" viewBox="0 0 108 147" fill="none" xmlns="http://www.w3.org/2000/svg">
<path d="M7.54469 13.4917V108.2C7.54469 121.381 24.6312 126.129 38.367 129.946L38.4335 129.968C41.3626 130.789 44.1364 131.566 46.6217 132.365C46.6439 132.365 49.4177 133.297 51.8586 134.917C52.6353 135.427 53.412 136.048 54.0333 136.603C54.7878 135.938 55.52 135.383 56.2079 134.917C58.5601 133.386 61.1564 132.476 61.4448 132.387C63.9301 131.566 66.7039 130.789 69.633 129.991L69.6996 129.968C83.4354 126.152 100.522 121.403 100.522 108.222V13.4917C96.8161 12.3822 79.308 7.54469 54.0333 7.54469C28.7364 7.54469 11.2505 12.3822 7.54469 13.4917Z" fill="#94BEE5"/>
<path d="M54.0333 142.484L51.8364 140.42C50.9932 139.643 50.1944 138.978 49.5065 138.534C47.5759 137.269 45.2903 136.492 45.2681 136.492C42.8938 135.716 40.1644 134.939 37.2575 134.14H37.2131C30.0234 132.143 21.8796 129.88 15.4 126.24C11.6499 124.132 8.85391 121.802 6.8346 119.095C4.43805 115.9 3.23978 112.261 3.23978 108.244V10.385L5.43661 9.65276C6.21327 9.38648 24.8753 3.23978 54.0333 3.23978C83.1913 3.23978 101.853 9.38648 102.63 9.65276L104.827 10.385V108.2C104.827 112.216 103.606 115.855 101.232 119.051C99.2127 121.736 96.4167 124.088 92.6665 126.196C86.1648 129.835 78.021 132.099 70.8313 134.096H70.7869C67.9022 134.895 65.1506 135.649 62.7762 136.448C62.7541 136.448 60.4685 137.247 58.5601 138.489C57.8722 138.955 57.0733 139.599 56.2301 140.376L54.0333 142.484ZM5.39223 11.9162V108.2C5.39223 111.728 6.45737 114.946 8.56544 117.764C10.4072 120.205 12.9813 122.357 16.4652 124.31C22.7228 127.838 30.7335 130.057 37.79 132.01H37.8344C40.7635 132.831 43.5151 133.585 45.9338 134.384C46.0448 134.429 48.4857 135.25 50.6604 136.67C51.4592 137.202 52.369 137.935 53.2788 138.8L54.0111 139.488L54.7434 138.8C55.6754 137.935 56.563 137.202 57.3618 136.67C59.5587 135.227 62.0662 134.384 62.0883 134.384C64.5293 133.585 67.2809 132.809 70.21 132.01H70.2544C77.3331 130.057 85.3215 127.816 91.5792 124.31C95.0631 122.357 97.6371 120.205 99.4789 117.764C101.587 114.946 102.652 111.728 102.652 108.2V11.9162L101.92 11.6721C101.165 11.428 82.8363 5.39223 54.0333 5.39223C25.2303 5.39223 6.90117 11.428 6.12451 11.6721L5.39223 11.9162Z" fill="#F0F0F0"/>
<path d="M54.0333 139.532L53.301 138.844C52.6575 138.245 51.6811 137.38 50.6826 136.714C48.4857 135.272 45.9782 134.429 45.956 134.429C43.5373 133.63 40.7857 132.875 37.8788 132.054L37.8122 132.032C30.7557 130.079 22.745 127.838 16.4874 124.332C9.00925 120.116 5.39223 114.857 5.39223 108.2V11.9162L6.12451 11.6721C6.30203 11.6055 25.2303 5.39223 54.0333 5.39223C69.0783 5.39223 81.2829 7.10088 88.872 8.52106C97.1268 10.0744 101.742 11.6055 101.942 11.6721L102.674 11.9162V108.2C102.674 114.857 99.0573 120.116 91.6014 124.31C85.3437 127.838 77.3331 130.057 70.2766 132.01L70.21 132.032C67.3031 132.831 64.5515 133.608 62.1105 134.406C62.0218 134.429 59.5365 135.294 57.384 136.692C56.5852 137.202 55.6976 137.957 54.7656 138.822L54.0333 139.532ZM7.54469 13.4917V108.2C7.54469 121.381 24.6312 126.129 38.367 129.946L38.4335 129.968C41.3626 130.789 44.1364 131.566 46.6217 132.365C46.6439 132.365 49.4177 133.297 51.8586 134.917C52.6353 135.427 53.412 136.048 54.0333 136.603C54.7878 135.938 55.52 135.383 56.2079 134.917C58.5601 133.386 61.1564 132.476 61.4448 132.387C63.9301 131.566 66.7039 130.789 69.633 129.991L69.6996 129.968C83.4354 126.152 100.522 121.403 100.522 108.222V13.4917C96.8161 12.3822 79.308 7.54469 54.0333 7.54469C28.7364 7.54469 11.2505 12.3822 7.54469 13.4917Z" fill="#480024"/>
<path d="M19.9934 23.1001L22.856 21.5689L25.6963 23.1001L25.1416 19.8825L27.4494 17.5969L24.2761 17.1309L22.856 14.2018L21.4136 17.1309L18.2404 17.5969L20.5482 19.8825L19.9934 23.1001Z" fill="white"/>
<path d="M38.3448 46.9768C39.6318 46.9768 40.4307 46.3111 41.1185 45.3791C40.8745 45.3347 40.6526 45.3125 40.4307 45.2681C39.4321 46.5774 38.0563 46.9768 38.3448 46.9768Z" fill="#7DA3C9"/>
<path d="M43.737 59.9137C39.4765 60.0912 34.284 61.9774 32.1537 64.0855C30.3119 65.9273 31.7099 68.2129 29.9347 69.9659C29.6462 70.5428 29.6684 71.3417 29.6684 71.8743C30.5338 71.5636 30.911 70.8313 30.911 70.8313C30.911 70.8313 30.9998 72.074 32.2424 72.2071C32.5087 73.3166 33.2188 74.2486 33.4407 74.2486C33.5961 74.2486 33.2854 72.7397 33.7514 71.7855C34.0621 71.4748 34.2618 71.1642 34.4171 70.8091C34.2174 70.2544 34.2618 69.7218 34.3283 69.5221C34.3505 69.4777 34.3949 69.4555 34.4171 69.4999C34.4837 69.5665 34.5946 69.633 34.7278 69.7218C34.9275 68.4348 34.7943 67.0812 35.9704 65.9051C37.7456 64.1299 41.7177 62.51 45.4678 61.933C44.8687 61.2229 44.2696 60.5128 43.737 59.9137Z" fill="#7DA3C9"/>
<path d="M47.0877 34.4393C46.5108 34.6168 44.2474 36.3255 43.382 37.1909C43.0491 37.5237 43.6704 38.4113 43.5373 38.5445C43.5373 38.5445 43.5151 38.5667 43.4707 38.5667C43.2488 38.5667 43.0491 38.5001 42.8494 38.3892C43.0491 39.2768 43.9367 40.2309 44.6468 40.8079C45.5788 40.0534 46.5108 39.4987 47.2653 38.8995C47.465 38.6998 47.7091 38.5001 47.9975 38.256C48.5301 37.6791 48.8851 37.0355 48.8851 36.1035C48.9073 34.9275 48.286 34.062 47.0877 34.4393Z" fill="#7DA3C9"/>
<path d="M28.1594 73.8492C28.3813 73.8492 28.1151 72.6953 28.6032 71.963C28.7142 71.9852 28.8252 72.0074 28.9361 72.0074C29.0027 72.0074 29.0914 72.0074 29.158 71.9852C28.8917 71.608 28.5811 71.031 28.4479 70.4097C27.6491 70.3209 27.3384 69.7884 27.2053 69.4111C27.1387 69.8106 27.2053 70.3209 27.405 70.7647C26.7615 72.0518 27.871 73.8492 28.1594 73.8492Z" fill="#7DA3C9"/>
<path d="M41.6511 33.9733C43.0047 33.3963 43.4707 31.7321 43.4707 30.7335C43.4707 30.2453 43.1157 29.979 42.4056 29.979C41.9396 29.979 40.7413 30.0234 39.8315 30.2453C39.5874 30.5782 39.4987 30.9776 39.4987 31.4658C39.4765 32.3312 40.7413 33.3963 41.6511 33.9733Z" fill="#7DA3C9"/>
<path d="M52.9238 79.2192C52.9238 75.4691 55.2094 74.0933 55.2094 71.7189C55.2094 71.1863 54.8543 70.21 54.6546 69.9659C54.6324 69.9659 54.6546 69.9881 54.6546 69.9881C55.3425 72.2293 53.5673 72.9616 52.2803 76.5564C50.6826 77.0002 48.9739 78.376 48.9739 80.8169C48.9739 83.391 50.971 85.255 52.7906 85.255C53.0791 85.255 53.301 85.1662 53.4341 85.1218C53.4563 85.1218 53.4563 85.1218 53.4785 85.1218C53.0347 84.4118 52.7684 83.5685 52.7684 82.6143C52.7684 81.9486 52.9016 81.3495 53.1235 80.8391C52.9903 80.3953 52.9238 79.8627 52.9238 79.2192Z" fill="#7DA3C9"/>
<path d="M35.3269 51.0598C35.9704 52.014 36.4808 53.0347 36.7027 54.0555C37.324 53.5895 37.7013 53.2788 37.7013 53.2788C36.7693 52.3468 36.1257 51.7477 35.3269 51.0598Z" fill="#7DA3C9"/>
<path d="M59.2924 85.9651C59.714 86.4754 60.0247 87.0746 60.0247 87.94C60.0247 89.0717 59.603 89.7152 59.4255 89.9371C59.4033 89.9815 59.4255 90.0259 59.4699 90.0259C59.8693 90.0924 61.4226 90.1368 62.9094 87.6737C64.8843 88.6945 64.3518 90.4031 64.1964 90.8025C64.1742 90.8469 64.2186 90.8913 64.263 90.8913C66.8371 90.8025 67.6581 87.3187 67.6581 87.3187C67.7247 87.3187 67.8134 87.2965 67.88 87.2965C67.9022 87.2077 67.9022 87.0968 67.9022 87.008C67.9022 86.0538 66.1048 85.2772 63.8414 85.5213C63.8414 85.5213 63.0203 89.0051 60.4463 89.0939C60.4019 89.0939 60.3797 89.0495 60.3797 89.0051C60.535 88.6057 61.0454 86.9858 59.2924 85.9651Z" fill="#7DA3C9"/>
<path d="M55.631 89.8484C55.6532 89.804 55.631 89.7596 55.5866 89.7596C53.6782 89.7818 52.8794 88.872 52.7241 88.3172C54.699 89.1161 55.8751 88.7388 56.5408 88.1619C56.1192 88.2729 55.8085 88.2507 55.6532 88.2285C55.6088 88.2285 55.5866 88.1619 55.6088 88.1397C55.7197 87.9844 55.9638 87.6293 56.1192 87.0302C55.1206 86.8749 54.1442 86.2092 53.5007 85.2106C53.5007 85.2106 53.5007 85.2106 53.5007 85.2328C53.301 85.7875 52.3024 87.94 48.8851 86.542C49.0405 87.0968 49.8393 88.0066 51.7477 87.9844C51.7921 87.9844 51.8143 88.0288 51.7921 88.0731C51.2595 89.1605 50.3275 89.4046 49.573 89.4046C48.4192 89.4046 47.2874 88.7388 46.0226 88.7388C43.5373 88.7388 42.3612 91.8455 38.3004 91.8455C38.8551 91.2464 38.833 89.8262 37.324 89.8262C34.6168 89.8262 32.3312 93.1103 28.7586 93.1769C28.7364 93.1769 28.692 93.1769 28.6698 93.1769C28.6254 93.1769 28.6032 93.1769 28.5589 93.1769C28.5367 93.3766 28.5367 93.5985 28.5367 93.8204C28.5367 94.8634 28.8695 96.2613 29.0692 96.2613C29.2689 96.2613 29.4021 94.6415 30.09 94.0201C30.3785 94.3086 30.7335 94.5305 31.1329 94.708C31.5102 94.8856 31.954 94.9743 32.4644 94.9743C32.4865 94.9743 32.5309 94.9743 32.5531 94.9743C36.1479 94.9077 38.4335 91.6236 41.1185 91.6236C42.6275 91.6236 42.6497 93.0438 42.0949 93.6429C46.1779 93.6429 47.3318 90.5363 49.8171 90.5363C51.082 90.5363 52.2137 91.202 53.3676 91.202C54.1664 91.1798 55.0984 90.9357 55.631 89.8484Z" fill="#7DA3C9"/>
<path d="M84.1011 82.4812C82.9916 83.3688 80.9057 83.1691 80.9057 83.1691C81.8821 82.3924 82.5921 80.1734 81.5936 78.0875C81.5714 78.0431 81.5048 78.0431 81.4826 78.0875C80.6172 80.129 78.9751 80.9501 77.3552 81.1276C77.2665 81.2163 77.1777 81.3051 77.089 81.3717C77.089 81.3717 79.1527 81.5714 80.2844 80.6838C80.3288 80.6616 80.3731 80.6838 80.3731 80.7282C80.2622 83.8126 76.1126 85.8763 76.1126 85.8763C76.623 86.3867 77.7769 86.2979 78.2207 86.0094C78.2651 85.9873 78.3094 86.0094 78.3094 86.076C78.2207 86.6973 77.4884 87.2521 76.8671 87.8734C71.7411 92.9994 72.895 96.2835 70.1878 96.2835C70.21 96.1726 70.4319 95.2184 69.3668 95.2184C67.7025 95.2184 66.3489 98.3694 64.3739 100.344C63.0203 101.698 61.3561 102.563 59.4699 102.563C58.8264 102.563 58.1607 102.275 57.6503 101.942C57.5615 102.009 57.495 102.075 57.4062 102.142C57.9166 103.007 58.9151 103.229 59.5587 103.229C59.4699 104.05 59.4921 105.448 59.6918 105.648C59.8471 105.803 60.4907 104.472 61.467 103.762C61.9774 104.072 62.6209 104.383 63.2866 104.383C65.1506 104.383 66.8371 103.495 68.1907 102.164C70.1656 100.189 71.5192 97.038 73.1835 97.038C74.2264 97.038 74.0267 97.9922 74.0045 98.1031C76.6895 98.1031 75.5578 94.819 80.6838 89.693C81.3051 89.0717 82.0374 88.5169 82.1262 87.8956C82.1262 87.8512 82.0818 87.8069 82.0374 87.829C81.5936 88.1175 80.4397 88.2063 79.9293 87.6959C79.9293 87.6959 84.0789 85.6322 84.1898 82.5478C84.1898 82.4812 84.1455 82.459 84.1011 82.4812Z" fill="#7DA3C9"/>
<path d="M21.6355 47.0434C21.7908 47.7756 22.39 49.1736 23.6992 49.1736C24.2983 49.1736 24.72 49.0183 24.9862 48.7964C25.1194 48.8186 25.2747 48.8408 25.4522 48.8408C27.1831 48.8408 27.5825 46.7549 29.7349 46.7549H29.7571C28.4257 45.6454 26.939 44.9575 25.9182 44.9575C23.7658 44.9575 23.3663 47.0434 21.6355 47.0434Z" fill="#7DA3C9"/>
<path d="M24.143 32.5531C24.143 36.6805 26.2289 38.5001 26.3842 38.6554C26.4508 38.722 26.4952 38.8108 26.5174 38.9217C27.6713 39.077 28.6698 39.3655 29.5574 39.7206C28.8917 38.833 27.9597 37.1021 27.9597 34.3505C27.9597 33.5295 27.405 32.886 26.5396 32.886C26.2733 32.309 25.5632 31.1329 24.0764 31.1329C23.7658 31.1329 23.5217 31.1551 23.322 31.2217C23.8323 31.4436 24.143 31.954 24.143 32.5531Z" fill="#7DA3C9"/>
<path d="M93.9536 39.7206C93.421 39.7206 93.1325 39.8093 93.1325 39.8093C93.1325 39.8093 96.7052 36.3033 96.7052 30.8445C96.7052 28.3592 96.106 27.405 96.0173 27.405C95.8397 27.405 95.8175 28.8917 94.6858 30.0234C94.1311 30.5782 93.3766 30.8001 92.7331 31.0886C92.023 35.3713 89.338 38.0119 89.338 38.0119C89.338 38.0119 89.6265 37.9232 90.159 37.9232C91.3351 37.9232 92.1783 38.7442 92.0008 38.9217C91.8455 39.077 90.2478 38.8551 88.7389 40.3419C88.7389 40.3419 86.7861 42.7163 83.5463 42.7163C80.3066 42.7163 77.4662 41.1407 77.4662 41.1407C76.2014 42.2724 75.2694 44.0255 75.2694 45.6897C75.2694 47.3318 75.7576 48.863 76.7783 50.4607C77.7547 51.9696 79.0861 53.3676 80.3953 54.7212C83.0138 57.4506 85.7432 60.2909 85.7432 64.2852C85.7432 66.2157 85.0996 68.0353 83.9236 69.3889C83.28 70.1434 82.4812 70.7425 81.5714 71.1642C80.6172 71.608 79.5299 71.8299 78.376 71.8299C76.6452 71.8299 75.1806 71.4748 73.8714 70.9866C74.182 71.142 74.5149 71.2973 74.8477 71.4748C76.8449 72.4956 79.1083 73.6495 82.2149 73.6495C83.3688 73.6495 84.4339 73.4276 85.4103 72.9838C86.3201 72.5621 87.0968 71.963 87.7625 71.2085C88.9386 69.8327 89.5821 68.0131 89.5821 66.1048C89.5821 62.1105 86.8749 59.2924 84.2342 56.5408C82.925 55.1872 81.5936 53.7892 80.6172 52.2803C79.5743 50.6604 79.1083 49.1514 79.1083 47.5093C79.1083 45.8451 80.0403 44.092 81.3051 42.9603C81.3051 42.9603 84.1233 44.5359 87.3852 44.5359C90.625 44.5359 92.5778 42.1615 92.5778 42.1615C94.0645 40.6747 95.6622 40.8967 95.8397 40.7413C95.9729 40.5416 95.1297 39.7206 93.9536 39.7206Z" fill="#7DA3C9"/>
<path d="M62.1771 15.2003C62.1993 15.1781 62.1993 15.1338 62.1549 15.1116C61.7333 14.9562 60.8235 14.6012 58.7376 14.6012C58.2051 14.6012 57.6947 14.6678 57.2065 14.8009C59.2036 14.4902 60.8235 14.69 62.1771 15.2003Z" fill="#7DA3C9"/>
<path d="M73.0725 79.3524C72.429 78.5313 72.0296 77.4662 72.0296 76.2901C72.0296 73.8936 72.8063 72.8284 73.1169 70.6982C72.3624 70.3875 71.6745 70.0325 71.0088 69.6996C70.4097 69.3889 69.8549 69.1005 69.3002 68.8786C68.9895 71.031 68.2129 72.0962 68.2129 74.5149C68.2129 77.3331 70.3875 79.3746 72.9394 79.3746C73.006 79.3524 73.0503 79.3524 73.0725 79.3524Z" fill="#7DA3C9"/>
<path d="M71.5414 22.4787C71.5858 22.4787 71.608 22.5231 71.5858 22.5675C71.2529 23.1666 70.3431 23.8102 69.5887 23.8102C69.2336 23.8102 69.0117 23.7658 69.0117 23.7658C71.1864 25.6963 70.8757 30.9554 73.1835 31.1329C73.2279 31.1329 73.2501 31.1995 73.2279 31.2439C72.895 31.5324 72.3624 31.7543 71.4526 31.7543C70.6316 31.7543 69.9437 31.3326 69.9437 31.3326C69.9437 31.3326 70.4319 32.0871 70.4319 33.1301C70.4319 34.173 70.0103 34.4393 70.0103 35.926C70.0103 37.2131 71.2529 38.0563 71.5636 38.256C71.608 38.2782 71.608 38.3226 71.5636 38.3448C71.3861 38.4779 71.0754 38.5667 70.5207 38.5667C69.8771 38.5667 68.5901 38.1229 67.8578 37.3906C68.0353 37.5681 68.923 38.5223 68.923 40.1422C68.923 41.7621 68.3238 43.0047 68.3238 44.6246C68.3238 46.0448 69.278 46.8214 69.5221 46.999C69.5443 47.0212 69.5443 47.0655 69.5221 47.0877C69.3889 47.1987 69.1227 47.354 68.6789 47.354C68.1907 47.354 66.7039 47.0434 65.8385 46.2001C66.2823 48.0863 65.084 49.573 65.084 52.2581C65.084 57.1843 68.8786 60.3575 69.4111 65.6388C70.4319 66.0382 71.3861 66.5486 72.3403 67.0368C72.6287 67.1921 72.9172 67.3252 73.2057 67.4584C72.6065 62.2881 68.9008 58.9151 68.9008 54.0555C68.9008 51.3704 70.099 49.8837 69.6552 47.9975C70.5207 48.863 72.0074 49.1514 72.4956 49.1514C72.6287 49.1514 72.7397 49.1292 72.8506 49.107C72.7175 48.7076 72.6065 48.3082 72.5178 47.9088C72.2959 47.5315 72.1184 47.0433 72.1184 46.422C72.1184 45.6232 72.2737 44.9131 72.4068 44.2252C72.4512 44.0255 72.4956 43.8036 72.54 43.6039C72.6509 43.0713 72.7175 42.5387 72.7175 41.9396C72.7175 40.3197 71.8299 39.3655 71.6524 39.188C72.3181 39.8537 73.472 40.2753 74.1377 40.3419C74.3374 40.0978 74.5593 39.8537 74.7812 39.6096C74.3152 39.2102 73.7826 38.5445 73.7826 37.7013C73.7826 36.2145 74.2042 35.9482 74.2042 34.9053C74.2042 33.8623 73.716 33.1079 73.716 33.1079C73.716 33.1079 74.404 33.5295 75.225 33.5295C76.1348 33.5295 76.6674 33.3076 77.0002 33.0191C77.0446 32.9747 77.0224 32.9303 76.9558 32.9082C74.648 32.7306 74.9587 27.4715 72.7841 25.541C72.7841 25.541 73.006 25.5854 73.361 25.5854C74.1155 25.5854 75.0253 24.9419 75.3581 24.3427C75.3803 24.2983 75.3581 24.254 75.3137 24.254C71.8521 24.0764 70.3431 17.7078 64.5958 16.5761C67.525 18.8839 69.0117 22.3678 71.5414 22.4787Z" fill="#7DA3C9"/>
<path d="M19.9712 118.119C19.0614 117.608 18.3292 117.165 18.3292 117.165C18.5511 117.165 18.8839 117.142 19.1058 116.787C19.2833 116.477 19.4165 115.9 19.594 115.212C19.6384 115.057 19.6828 114.879 19.7271 114.724C18.9283 114.235 18.1516 113.725 17.3528 113.193C17.2196 113.303 17.0865 113.392 16.9534 113.503C16.3986 113.947 15.9104 114.302 15.7107 114.59C15.4666 114.946 15.5776 115.256 15.6885 115.456C15.6885 115.456 15.1559 115.056 14.3571 114.502C13.5361 113.925 13.0701 113.592 13.0701 113.592C13.758 113.592 14.3793 113.17 15.7773 112.194C17.1531 111.218 18.5067 110.197 19.8381 109.176C19.949 109.087 20.06 108.999 20.1488 108.865C20.2375 108.732 20.2153 108.644 20.2153 108.621C21.2583 109.331 22.3012 109.997 23.3663 110.641C23.3663 110.641 23.2554 110.663 23.1666 110.818C23.1001 110.951 23.0335 111.084 23.0113 111.218C22.5897 112.837 22.2125 114.457 21.8574 116.099C21.5024 117.764 21.3914 118.496 21.6577 119.095C21.6133 119.073 20.9698 118.696 19.9712 118.119ZM20.8588 110.752C21.0142 110.263 21.1029 109.997 21.1473 109.931C21.1029 109.975 20.9476 110.152 20.526 110.53C19.7937 111.173 19.0614 111.795 18.307 112.438C18.8839 112.837 19.483 113.215 20.06 113.57C20.3041 112.616 20.5704 111.684 20.8588 110.752Z" fill="#480024"/>
<path d="M24.4315 120.582C22.7894 119.783 22.1681 119.029 22.1681 119.051C22.1681 119.051 22.3234 118.829 22.6119 118.274C22.9447 117.653 23.1223 117.276 23.1223 117.276C23.2776 118.008 23.6104 118.829 24.8309 119.428C25.6741 119.827 26.4286 119.983 26.7393 119.317C26.9834 118.784 26.6727 118.429 26.2067 117.875C25.9404 117.564 25.6963 117.231 25.4522 116.92C24.7421 116.011 24.2983 115.079 24.8531 114.036C25.5854 112.66 26.939 112.527 28.803 113.414C30.1344 114.036 30.7335 114.635 30.7335 114.635C30.7335 114.635 30.6004 114.879 30.3563 115.478C30.09 116.099 29.979 116.454 29.979 116.454C29.7571 115.633 29.3577 114.968 28.4701 114.546C27.7156 114.191 27.1609 114.147 26.8946 114.679C26.6505 115.167 26.9612 115.522 27.4715 116.144C27.6934 116.41 27.9153 116.676 28.1372 116.943C28.9583 117.897 29.4243 118.74 28.9583 119.916C28.1594 121.669 26.3842 121.536 24.4315 120.582Z" fill="#480024"/>
<path d="M37.7456 118.629C37.7456 118.607 37.7013 118.474 37.4128 118.208C37.1687 117.963 36.7471 117.719 36.1701 117.542C35.9482 117.475 35.7485 117.409 35.5266 117.342C35.2159 118.296 34.9053 119.25 34.6168 120.227C33.5961 123.422 33.6404 123.489 33.7736 124.021C33.7958 124.088 33.818 124.177 33.8401 124.243C33.8401 124.243 33.3742 124.088 32.2424 123.688C31.1107 123.311 30.6226 123.134 30.6226 123.134C30.6891 123.089 30.7557 123.045 30.8001 123.001C31.2217 122.69 31.3105 122.623 32.4644 119.384C32.7972 118.474 33.1079 117.564 33.4407 116.654C33.2188 116.588 33.0191 116.499 32.7972 116.432C32.2424 116.233 31.7543 116.166 31.3992 116.21C31.022 116.255 30.8888 116.321 30.8666 116.344C30.8666 116.344 31.022 116.033 31.2439 115.478C31.4658 114.946 31.5324 114.724 31.5324 114.724C33.707 115.611 35.926 116.344 38.1672 116.965C38.1672 116.965 38.0785 117.209 37.9453 117.742C37.8122 118.296 37.7678 118.607 37.7456 118.629Z" fill="#480024"/>
<path d="M40.941 126.152C37.8788 125.53 36.7471 123.622 37.435 121.114C38.0341 118.962 39.654 117.253 42.5387 117.83C45.2016 118.341 46.3776 119.961 46.067 122.557C45.8229 124.776 44.3139 126.795 40.941 126.152ZM42.339 119.006C41.1186 118.762 40.3419 119.539 39.8759 121.625C39.4099 123.688 39.8093 124.709 41.1407 124.976C42.4943 125.242 43.271 124.399 43.626 122.313C43.9589 120.227 43.5595 119.25 42.339 119.006Z" fill="#480024"/>
<path d="M55.4978 119.25C55.2759 119.65 55.2094 119.783 55.2537 123.223C55.2759 124.576 55.2981 125.93 55.3203 127.283C55.3203 127.283 54.9431 127.261 54.0777 127.261C53.1457 127.261 52.4356 127.261 52.4356 127.261C51.4148 125.397 50.505 123.511 49.6618 121.625C49.4843 121.203 49.3733 120.759 49.3733 120.715C49.3068 121.492 49.2624 122.268 49.1958 123.045C48.9295 126.396 48.9961 126.44 49.2402 126.928C49.2846 126.995 49.3068 127.061 49.3511 127.128C49.3511 127.128 48.9295 127.084 48.0197 126.995C47.0434 126.906 46.6661 126.884 46.6661 126.884C46.7105 126.817 46.7549 126.773 46.8215 126.706C47.1099 126.329 47.2209 126.218 47.5759 122.779C47.9088 119.45 47.8644 119.384 47.6647 118.918C47.6425 118.851 47.5981 118.784 47.5759 118.718C47.5759 118.718 48.0197 118.807 49.1292 118.895C50.0612 118.962 50.5272 118.962 50.5272 118.962C51.3483 120.848 52.2581 122.712 53.2344 124.554C53.4785 124.998 53.5673 125.375 53.5895 125.442C53.5895 124.665 53.6117 123.888 53.6117 123.112C53.6339 119.761 53.5895 119.716 53.3454 119.25C53.301 119.184 53.2788 119.117 53.2344 119.051C53.2344 119.051 53.5895 119.073 54.4105 119.073C55.2537 119.073 55.6088 119.029 55.6088 119.029C55.5644 119.117 55.52 119.184 55.4978 119.25Z" fill="#480024"/>
<path d="M66.5486 120.56C66.3267 122.468 66.0604 124.399 65.7276 126.307C65.7276 126.307 65.1284 126.396 64.0633 126.551C63.0425 126.706 62.3546 126.795 62.3546 126.795C61.5114 125.042 60.7126 123.289 59.9581 121.514C59.3146 119.961 59.0261 119.273 58.5379 118.895C58.5379 118.895 58.9817 118.895 60.1578 118.784C61.3783 118.651 61.8443 118.563 61.8443 118.563C61.7111 118.696 61.4892 118.918 61.5558 119.339C61.6002 119.739 61.8886 120.382 62.2437 121.181C62.7984 122.424 63.3754 123.689 63.9523 124.931C64.0855 125.22 64.1964 125.552 64.2186 125.597C64.2186 125.552 64.2408 125.22 64.2852 124.887C64.4849 123.533 64.6624 122.157 64.8399 120.804C64.9287 119.916 65.0175 119.228 64.9287 118.829C64.8621 118.407 64.5958 118.252 64.4183 118.185C64.4183 118.185 64.8843 118.141 65.8829 117.941C66.8149 117.764 67.1921 117.631 67.1921 117.631C66.8371 118.141 66.7483 118.873 66.5486 120.56Z" fill="#480024"/>
<path d="M71.0088 125.153C69.8549 125.442 69.3668 125.575 69.3668 125.575C69.3889 125.508 69.4111 125.419 69.4555 125.353C69.633 124.865 69.6774 124.776 68.8786 121.403C68.1019 118.141 68.0575 118.097 67.7025 117.719C67.6581 117.675 67.5915 117.608 67.5472 117.564C67.5472 117.564 67.9688 117.497 68.9895 117.231C70.0769 116.943 70.4319 116.81 70.4319 116.832C70.4097 116.898 70.3875 116.987 70.3875 117.054C70.2766 117.542 70.2322 117.631 71.142 120.959C72.0296 124.199 72.0962 124.221 72.4956 124.598C72.5621 124.643 72.6065 124.709 72.6731 124.754C72.6509 124.731 72.1627 124.865 71.0088 125.153Z" fill="#480024"/>
<path d="M79.6187 121.891C79.663 122.024 79.7074 122.18 79.7518 122.313C78.1763 122.956 76.5564 123.533 74.9587 124.044C74.2486 124.265 73.938 124.376 73.938 124.376C73.9601 124.31 73.9823 124.221 74.0045 124.155C74.1377 123.666 74.182 123.555 73.1613 120.249C72.1627 117.054 72.0962 117.009 71.7189 116.654C71.6745 116.61 71.608 116.543 71.5636 116.499C71.5636 116.499 71.963 116.41 73.0503 116.055C74.1155 115.7 74.4483 115.545 74.4483 115.545C74.4261 115.633 74.4261 115.7 74.4039 115.789C74.293 116.299 74.3152 116.521 75.1806 119.006C75.58 120.116 75.9573 121.248 76.3567 122.357C76.6452 122.246 76.9336 122.157 77.2221 122.046C78.8198 121.447 78.9086 121.048 79.1527 120.271C79.1305 120.271 79.2414 120.715 79.6187 121.891Z" fill="#480024"/>
<path d="M86.2092 118.784C86.2757 118.918 86.3201 119.051 86.3867 119.184C84.8556 120.005 83.3244 120.759 81.7489 121.447C81.061 121.758 80.7504 121.891 80.7504 121.891C80.7725 121.825 80.7726 121.736 80.7947 121.669C80.8835 121.159 80.9057 121.048 79.5521 117.875C78.2207 114.79 78.1541 114.768 77.7325 114.457C77.6659 114.413 77.6215 114.369 77.555 114.324C77.555 114.324 77.9544 114.191 78.9973 113.725C80.0181 113.259 80.3509 113.059 80.3509 113.059C80.3509 113.148 80.3288 113.215 80.3288 113.303C80.2622 113.814 80.3066 114.058 81.4383 116.41C81.9486 117.475 82.459 118.563 82.9694 119.628C83.2579 119.495 83.5241 119.361 83.8126 119.228C85.3659 118.452 85.4103 118.03 85.5656 117.253C85.5434 117.231 85.6988 117.675 86.2092 118.784Z" fill="#480024"/>
<path d="M93.5985 114.701C92.7331 115.323 92.023 115.811 92.023 115.811C92.1118 115.611 92.2449 115.301 92.0008 114.946C91.8011 114.657 91.3351 114.28 90.7804 113.836C90.6472 113.725 90.5141 113.614 90.3809 113.525C89.6043 114.036 88.8054 114.546 88.0066 115.034C88.0509 115.19 88.0953 115.367 88.1175 115.522C88.2951 116.21 88.406 116.81 88.5835 117.098C88.8054 117.475 89.1383 117.497 89.338 117.497C89.338 117.497 88.761 117.83 87.94 118.296C87.0746 118.784 86.6086 119.073 86.6086 119.073C86.8749 118.452 86.7639 117.697 86.4532 116.033C86.1426 114.369 85.7876 112.727 85.3881 111.084C85.3438 110.951 85.3215 110.818 85.2328 110.685C85.1662 110.552 85.0553 110.53 85.0331 110.53C86.0982 109.886 87.1412 109.22 88.1841 108.51C88.1841 108.51 88.1619 108.621 88.2507 108.754C88.3394 108.888 88.4282 108.976 88.5391 109.065C89.8262 110.13 91.1576 111.151 92.489 112.15C93.8426 113.148 94.4639 113.57 95.1518 113.57C95.174 113.592 94.5527 114.036 93.5985 114.701ZM87.2521 110.84C86.8749 110.507 86.6752 110.308 86.6308 110.241C86.653 110.308 86.7417 110.53 86.8971 111.062C87.1633 111.994 87.4296 112.926 87.6959 113.88C88.295 113.525 88.872 113.148 89.4489 112.771C88.7167 112.127 87.9844 111.484 87.2521 110.84Z" fill="#480024"/>
<path d="M45.0462 110.707V109.842C45.8895 109.842 46.3111 109.531 46.3333 108.91H47.2431V114.125H46.1336V110.485C45.956 110.618 45.5788 110.707 45.0462 110.707Z" fill="white"/>
<path d="M49.9725 114.036C49.6618 113.925 49.3955 113.725 49.218 113.503C49.0405 113.259 48.9517 112.971 48.9517 112.638C48.9517 112.061 49.2846 111.617 49.9281 111.329V111.306C49.4399 111.04 49.1958 110.685 49.1958 110.197C49.1958 109.908 49.2846 109.664 49.4399 109.442C49.5952 109.22 49.8171 109.065 50.1056 108.954C50.3941 108.843 50.7047 108.799 51.0598 108.799C51.4148 108.799 51.7255 108.843 52.014 108.954C52.3024 109.065 52.5243 109.22 52.6797 109.442C52.835 109.664 52.9238 109.908 52.9238 110.197C52.9238 110.663 52.6797 111.04 52.1915 111.306V111.329C52.835 111.617 53.1679 112.061 53.1679 112.638C53.1679 112.971 53.0791 113.281 52.9016 113.503C52.7241 113.747 52.4578 113.925 52.1471 114.036C51.8365 114.147 51.4814 114.213 51.082 114.213C50.6604 114.213 50.3053 114.169 49.9725 114.036ZM50.3497 113.148C50.5272 113.303 50.7491 113.392 51.0598 113.392C51.3483 113.392 51.5924 113.303 51.7699 113.148C51.9474 112.993 52.0362 112.793 52.0362 112.549C52.0362 112.305 51.9474 112.105 51.7699 111.95C51.5924 111.795 51.3704 111.728 51.0598 111.728C50.7491 111.728 50.5272 111.795 50.3497 111.95C50.1722 112.105 50.0834 112.305 50.0834 112.549C50.0834 112.771 50.1722 112.993 50.3497 113.148ZM50.4385 110.796C50.5716 110.929 50.7935 110.973 51.0598 110.973C51.3261 110.973 51.5258 110.907 51.6811 110.796C51.8143 110.663 51.903 110.507 51.903 110.286C51.903 110.064 51.8364 109.908 51.6811 109.775C51.548 109.642 51.3261 109.598 51.0598 109.598C50.7935 109.598 50.5938 109.664 50.4385 109.775C50.3053 109.908 50.2166 110.064 50.2166 110.286C50.2388 110.485 50.3053 110.663 50.4385 110.796Z" fill="white"/>
<path d="M55.4535 112.46C55.6088 111.905 55.8307 111.395 56.097 110.929C56.3633 110.463 56.6517 110.108 56.9624 109.842V109.82H54.3883V108.91H58.1385V109.753C57.5615 110.219 57.1399 110.84 56.8293 111.639C56.5186 112.438 56.3633 113.259 56.3633 114.125H55.1872C55.2094 113.57 55.2759 113.015 55.4535 112.46Z" fill="white"/>
<path d="M61.3339 112.971H58.9373V111.905L61.3339 108.91H62.4434V112.083H63.1979V112.993H62.4434V114.125H61.3339V112.971ZM61.3339 112.061V110.152L59.8028 112.061H61.3339Z" fill="white"/>
<path d="M43.8923 23.8323C43.3598 24.3649 43.4263 25.0306 42.9603 25.4966C42.7606 25.6963 42.4944 25.8295 42.1393 25.8295C41.4514 25.8295 40.9854 25.2525 40.9854 24.6756C40.9854 24.0764 41.6733 23.5439 43.5373 23.5439C43.7592 23.5439 44.0255 23.5439 44.2696 23.5661C44.1364 23.6104 44.0033 23.6992 43.8923 23.8323Z" fill="#7496BD"/>
<path d="M90.1368 37.9232C89.6043 37.9232 89.3158 38.0119 89.3158 38.0119C89.3158 38.0119 92.8884 34.5059 92.8884 29.0471C92.8884 26.5617 92.2893 25.6076 92.2005 25.6076C92.023 25.6076 92.0008 27.0943 90.8691 28.226C90.0481 29.047 88.7389 29.1358 88.0066 29.8681C88.7167 28.3592 88.2063 26.3398 88.0953 26.3398C88.0066 26.3398 88.0509 27.405 86.6973 28.7586C85.8319 29.624 83.857 30.2453 82.2149 31.8652C82.9028 30.2675 82.3037 28.6032 82.1483 28.6032C81.993 28.6032 82.1484 29.5574 81.2164 30.4894C80.3509 31.3548 78.6867 31.7765 77.444 33.0413C75.7132 34.7721 76.0238 37.3906 76.0238 38.3448C76.0238 38.4335 76.0238 38.5223 76.0238 38.6111C75.7797 38.7886 75.5356 38.9883 75.2916 39.188C73.3388 40.8967 72.2959 43.1601 72.2959 45.7119C72.2959 50.5938 75.4469 53.878 78.2429 56.8071C79.4855 58.0941 80.6394 59.3146 81.4826 60.5794C82.3481 61.8886 82.7475 63.0869 82.7475 64.3296C82.7475 65.5278 82.3481 66.7039 81.638 67.525C80.8391 68.4569 79.7518 68.9229 78.3538 68.9229C75.9573 68.9229 74.2042 68.0353 72.3403 67.0812C71.3861 66.593 70.4319 66.0826 69.4111 65.6832C68.8786 60.4241 65.084 57.2287 65.084 52.3024C65.084 49.6174 66.2823 48.1307 65.8385 46.2445C66.7039 47.1099 68.1907 47.3984 68.6789 47.3984C69.1005 47.3984 69.3668 47.2431 69.5221 47.1321C69.5443 47.1099 69.5443 47.0655 69.5221 47.0434C69.278 46.8658 68.3238 46.0892 68.3238 44.669C68.3238 43.0491 68.923 41.8064 68.923 40.1866C68.923 38.5667 68.0353 37.6125 67.8578 37.435C68.5901 38.1672 69.8771 38.6111 70.5207 38.6111C71.0754 38.6111 71.3861 38.5223 71.5636 38.3892C71.5858 38.367 71.5858 38.3226 71.5636 38.3004C71.2529 38.1007 70.0103 37.2575 70.0103 35.9704C70.0103 34.4837 70.4319 34.2174 70.4319 33.1744C70.4319 32.1315 69.9437 31.377 69.9437 31.377C69.9437 31.377 70.6316 31.7986 71.4526 31.7986C72.3624 31.7986 72.895 31.5767 73.2279 31.2883C73.2722 31.2439 73.2501 31.1995 73.1835 31.1773C70.8757 30.9998 71.1864 25.7407 69.0117 23.8102C69.0117 23.8102 69.2336 23.8545 69.5887 23.8545C70.3431 23.8545 71.2529 23.211 71.5858 22.6119C71.608 22.5675 71.5858 22.5231 71.5414 22.5231C67.3696 22.3012 66.0382 13.0701 56.6295 14.934C57.1177 14.2461 58.0275 13.6692 58.3382 13.4695C58.3826 13.4473 58.3826 13.3807 58.3382 13.3585C57.9166 13.2032 57.0068 12.8482 54.9209 12.8482C52.7684 12.8482 50.7935 14.0021 49.6618 15.4666C50.1722 14.4459 49.5508 13.1588 48.9739 12.5153C48.9517 12.4709 48.8851 12.4931 48.863 12.5375C48.7964 12.8038 48.5745 13.3585 48.2194 13.7136C46.533 15.4 43.4929 16.4874 43.4929 20.0156C43.4929 20.0156 42.4943 20.6591 41.1629 21.5689C39.8093 22.4787 39.0992 23.9211 39.0992 24.3871C38.5889 24.6534 36.4586 26.2289 34.7499 27.9375C34.7056 27.9819 34.7056 28.0485 34.7278 28.0929C34.9053 28.3813 35.0384 28.7364 35.105 28.9361C35.1272 29.0249 35.2381 29.0471 35.3047 28.9805C35.5266 28.7586 35.9926 28.3592 36.2145 28.2926C35.8373 28.6698 35.7041 29.1358 35.7041 29.7128C35.7041 30.9998 38.5445 32.7972 38.722 32.6197C38.8551 32.4865 38.3892 31.1773 38.8108 30.7557C39.4543 30.1122 41.7177 30.0456 42.4056 30.0456C43.1157 30.0456 43.4707 30.3119 43.4707 30.8001C43.4707 31.9984 42.7828 34.2396 40.6082 34.2396C39.7206 34.2396 39.1658 33.3963 39.0105 33.5295C38.8773 33.6626 38.9883 34.9275 39.2768 35.3491C39.2768 35.3491 39.0327 35.6376 39.0327 36.2367C39.0327 37.79 41.6067 39.7871 41.873 39.5209C42.0505 39.3433 41.3405 37.5903 41.7843 37.5903C42.0284 37.5903 42.7162 38.5889 43.5151 38.5889C43.5595 38.5889 43.5595 38.5667 43.5817 38.5667C43.7148 38.4335 43.0713 37.5459 43.4263 37.2131C44.2918 36.3476 46.5552 34.639 47.1321 34.4615C48.3304 34.0842 48.9517 34.9497 48.9517 36.1257C48.9517 38.7442 46.1779 39.2768 43.9145 41.518C41.6511 43.7814 41.2073 46.999 38.367 46.999C37.9897 46.999 40.475 46.3111 41.1851 43.8479C33.7514 43.9145 32.4865 39.7649 26.5396 38.9661C26.5174 38.8773 26.473 38.7886 26.4064 38.6998C26.2511 38.5445 24.1652 36.7027 24.1652 32.5975C24.1652 31.7765 23.6104 31.1329 22.745 31.1329C22.4787 30.556 21.7686 29.3799 20.2819 29.3799C18.8617 29.3799 18.5067 30.0456 18.5954 30.1122C18.6842 30.2009 19.2833 29.979 20.0156 30.7113C20.4372 31.1329 20.6148 31.6211 20.6813 31.954C20.5038 32.1759 20.3929 32.42 20.3929 32.7084C20.3929 32.7084 19.6606 32.5753 18.9505 33.241C18.6398 33.0635 18.1294 32.8638 17.3528 32.8638C15.3113 32.8638 14.8897 34.7056 14.9784 34.7943C15.0672 34.8831 15.4222 34.4615 16.0436 34.4615C16.7536 34.4615 17.5081 35.0384 17.9075 35.3713C17.8632 35.8373 17.9519 36.2811 18.2626 36.5917C18.2626 36.5917 17.2862 36.8802 17.1087 38.256C17.0643 38.256 17.0199 38.2782 16.9755 38.3004C14.2683 39.0549 14.7787 41.1629 14.8897 41.1629C15.0006 41.1629 15.1338 40.2531 16.3764 40.2531C16.798 40.2531 17.1531 40.2975 17.4194 40.3641C17.9075 41.2961 18.773 41.518 19.3943 41.518C19.949 41.518 20.4816 41.3848 20.9476 41.3848C21.5689 41.3848 21.9462 41.7621 21.9462 42.6275C21.9462 43.8923 20.7257 43.5151 20.1709 44.0699C19.7937 44.4471 19.7493 44.7799 19.7493 45.2903C19.7493 45.3125 19.7493 45.3347 19.7493 45.3569C19.5718 45.4013 19.3943 45.4457 19.2168 45.4457C18.3735 45.4457 17.8854 44.6912 17.7744 44.8021C17.6191 44.9575 18.1294 47.3762 19.8381 47.3762C20.4372 47.3762 20.8588 47.2209 21.1251 46.999C21.2583 47.0212 21.4136 47.0434 21.5911 47.0434C23.322 47.0434 23.7214 44.9575 25.8738 44.9575C28.0041 44.9575 32.1537 47.931 32.7528 51.6367C32.7528 51.6811 32.8194 51.7033 32.8416 51.6811C33.7736 50.9045 33.7292 49.7506 33.7292 49.7506C35.4822 51.1707 36.2145 51.8364 37.6791 53.2788C37.6791 53.2788 29.1358 59.8471 28.692 60.1134C28.3148 60.3353 28.1151 60.4463 27.6491 60.4463C26.4508 60.4463 26.0736 58.427 24.143 58.427C23.7658 58.427 23.4995 58.5379 23.2776 58.7154C23.0779 58.671 22.8338 58.6489 22.5231 58.6489C20.2597 58.6489 19.8603 61.6889 20.06 61.6889C20.2819 61.6889 20.4372 60.9123 21.5024 60.9123C21.6355 60.9123 21.7908 60.9345 21.924 60.9566C21.924 61.5336 22.1459 62.0883 22.5231 62.3768C22.5231 62.3768 21.9018 62.5987 21.5467 63.331C18.8617 63.4198 18.9061 66.593 19.1724 66.593C19.3499 66.593 19.4609 65.2616 21.0142 65.2616C21.1251 65.2616 21.2805 65.3059 21.4136 65.3725C21.6799 66.5486 22.5009 67.1921 23.4551 67.1921C23.211 67.6359 23.2554 68.346 23.5217 68.9673C22.9003 70.2766 24.0099 72.0518 24.2983 72.0518C24.5202 72.0518 24.254 70.8979 24.7421 70.1656C24.8531 70.1878 24.964 70.21 25.075 70.21C26.473 70.21 27.0721 69.0339 27.0721 69.0339C27.0721 69.0339 27.1609 70.2766 28.4035 70.4097C28.6698 71.5192 29.3799 72.4512 29.6018 72.4512C29.7571 72.4512 29.4465 70.9423 29.9125 69.9881C31.6877 68.2129 30.2897 65.9273 32.1315 64.1077C34.2396 61.9996 39.4321 60.1134 43.7148 59.9359C45.2681 61.6667 47.3984 64.3074 48.3748 64.9731C48.3748 64.9731 48.3304 65.0175 48.2638 65.084C45.6232 67.7247 40.7413 65.4169 38.1672 67.991C37.1465 69.0117 37.0134 69.9437 35.571 69.9437C35.0828 69.9437 34.6168 69.6996 34.4171 69.4999C34.3949 69.4777 34.3283 69.4777 34.3283 69.5221C34.2396 69.8327 34.173 70.8535 34.9497 71.6302C35.8373 72.5178 36.9468 72.3624 37.2353 72.2071C36.5252 73.1613 34.9718 73.1169 34.062 72.5843C34.0177 72.5621 33.9511 72.6065 33.9733 72.6509C34.6834 75.4025 37.5237 74.8699 37.5237 74.8699C38.1229 77.8212 41.0298 79.0417 41.0298 81.0166C41.0298 81.5714 40.8079 82.1927 40.3419 82.6587C39.2324 83.7682 36.7915 84.5005 34.1286 84.5005C29.8459 84.5005 29.7793 81.4604 27.4494 81.4604C27.1387 81.4604 26.8502 81.5048 26.5617 81.5714C26.2289 81.1942 25.4966 80.7504 24.5646 80.7504C23.1444 80.7504 22.3012 82.3702 22.5009 82.57C22.6119 82.6809 23.0335 82.1705 23.677 82.1705C23.9877 82.1705 24.3871 82.4368 24.5424 82.8806C24.4315 83.0138 24.3205 83.1691 24.2318 83.3466C23.9877 83.28 23.6992 83.2357 23.322 83.2357C20.6369 83.2357 20.6813 86.3423 20.9698 86.3423C21.1251 86.3423 21.4802 85.1884 22.7894 85.3437C22.5231 85.8319 22.39 86.3645 22.39 86.9636C22.39 87.0524 22.39 87.1411 22.39 87.2299C21.7686 87.585 21.3027 88.2507 21.3027 89.0273C21.3027 90.159 21.5246 90.7138 21.6799 90.7138C21.8796 90.7138 22.0571 89.4046 23.0335 88.9829C23.4773 89.5821 24.1208 90.0481 24.8753 90.2478C24.7865 90.625 24.6978 91.2242 24.6978 92.0674C24.6978 93.1103 25.0306 94.5083 25.2303 94.5083C25.43 94.5083 25.5632 92.8884 26.2511 92.2671C26.5396 92.5556 26.8946 92.7775 27.294 92.955C27.6713 93.1325 28.1151 93.2213 28.6254 93.2213C28.6476 93.2213 28.692 93.2213 28.7142 93.2213C32.309 93.1547 34.5946 89.8706 37.2796 89.8706C38.7886 89.8706 38.8108 91.2907 38.256 91.8899C42.339 91.8899 43.4929 88.7832 45.9782 88.7832C47.2431 88.7832 48.3748 89.4489 49.5287 89.4489C50.2831 89.4489 51.2151 89.2048 51.7477 88.1175C51.7699 88.0731 51.7477 88.0288 51.7033 88.0288C49.7949 88.0509 48.9961 87.1412 48.8408 86.5864C52.2581 87.9622 53.2566 85.8319 53.4563 85.2772C53.4785 85.2328 53.4342 85.1884 53.3676 85.2106C53.2344 85.2772 52.9903 85.3437 52.7241 85.3437C50.8823 85.3437 48.9073 83.4798 48.9073 80.9057C48.9073 78.4648 50.5938 77.089 52.2137 76.6452C53.4785 73.0503 55.2759 72.3181 54.588 70.0768V70.0547C54.7878 70.2987 55.1428 71.2751 55.1428 71.8077C55.1428 74.182 52.8572 75.5357 52.8572 79.308C52.8572 83.5463 56.1635 83.391 56.1635 86.2313C56.1635 87.363 55.7419 88.0066 55.5644 88.2285C55.5422 88.2729 55.5644 88.3172 55.6088 88.3172C56.0082 88.3838 57.5615 88.4282 59.0483 85.9651C61.0232 86.9858 60.4907 88.6945 60.3353 89.0939C60.3131 89.1383 60.3575 89.1827 60.4019 89.1827C62.976 89.0939 63.797 85.61 63.797 85.61C66.0604 85.3659 67.8578 86.1426 67.8578 87.0968C67.8578 89.5599 63.2644 94.1533 59.9137 94.1533C58.6711 94.1533 58.2272 92.8441 57.1399 92.8441C56.3411 92.8441 55.9638 93.2213 55.7197 93.7095C55.2759 93.5098 54.8321 93.421 54.4105 93.421C53.3454 93.421 52.4134 94.0201 52.0805 95.3293C50.6382 95.7953 50.3497 98.0366 50.4828 98.1919C50.5938 98.3028 51.3039 97.1268 52.48 97.3931C52.6797 97.7259 52.9238 97.9922 53.1235 98.1919C52.8794 98.325 52.6353 98.4804 52.3468 98.7688C50.9266 100.189 51.2817 101.765 51.4148 101.898C51.5702 102.053 51.8143 101.343 52.2137 100.943C52.5243 100.633 52.9682 100.3 53.5673 100.344C54.0555 101.254 55.0984 101.498 55.7641 101.498C55.6754 102.319 55.6976 103.717 55.8973 103.917C56.0526 104.072 56.6961 102.741 57.6725 102.031C58.1829 102.341 58.8264 102.652 59.4921 102.652C61.3561 102.652 63.0425 101.765 64.3961 100.433C66.3711 98.4582 67.7247 95.3072 69.3889 95.3072C70.4319 95.3072 70.2322 96.2613 70.21 96.3723C72.895 96.3723 71.7633 93.0882 76.8893 87.9622C77.5106 87.3409 78.2429 86.7861 78.3316 86.1648C78.3316 86.1204 78.2872 86.076 78.2429 86.0982C77.799 86.3867 76.6452 86.4754 76.1348 85.9651C76.1348 85.9651 80.2844 83.9014 80.3953 80.8169C80.3953 80.7725 80.3288 80.7282 80.3066 80.7725C79.197 81.6602 77.1112 81.4604 77.1112 81.4604C78.0875 80.6838 78.7976 78.4648 77.799 76.3789C77.7769 76.3345 77.7103 76.3345 77.6881 76.3789C76.7339 78.6645 74.759 79.4411 72.9838 79.4411C70.4319 79.4411 68.2572 77.3774 68.2572 74.5815C68.2572 72.1849 69.0339 71.0976 69.3446 68.9451C69.8993 69.1892 70.4541 69.4555 71.0532 69.7662C73.0503 70.7869 75.3138 71.9408 78.4204 71.9408C79.5743 71.9408 80.6394 71.7189 81.6158 71.2751C82.5256 70.8535 83.3022 70.2544 83.9679 69.4999C85.144 68.1241 85.7876 66.3045 85.7876 64.3961C85.7876 60.4019 83.0803 57.5837 80.4397 54.8321C79.1305 53.4785 77.799 52.0805 76.8227 50.5716C75.7797 48.9517 75.3137 47.4428 75.3137 45.8007C75.3137 44.1364 76.2457 42.3834 77.5106 41.2517C77.5106 41.2517 80.3287 42.8272 83.5907 42.8272C86.8305 42.8272 88.7832 40.4528 88.7832 40.4528C90.27 38.9661 91.8677 39.188 92.0452 39.0327C92.1562 38.7442 91.3129 37.9232 90.1368 37.9232ZM43.8923 23.8323C43.3598 24.3649 43.4263 25.0306 42.9603 25.4966C42.7606 25.6963 42.4944 25.8295 42.1393 25.8295C41.4514 25.8295 40.9854 25.2525 40.9854 24.6756C40.9854 24.0764 41.6733 23.5439 43.5373 23.5439C43.7592 23.5439 44.0255 23.5439 44.2696 23.5661C44.1364 23.6104 44.0033 23.6992 43.8923 23.8323Z" fill="#FFE505"/>
<path d="M103.651 6.56832C102.852 6.30203 83.7017 0 54.0333 0C24.3649 0 5.21471 6.30203 4.41586 6.56832L0 8.05506V108.2C0 112.926 1.42018 117.231 4.23834 120.981C6.52394 124.044 9.65276 126.662 13.8023 128.992C20.6369 132.831 28.9805 135.161 36.3255 137.202L36.3698 137.225C39.2324 138.023 41.9174 138.756 44.203 139.51C44.2252 139.51 46.1336 140.176 47.6869 141.197C48.2194 141.552 48.9073 142.106 49.5952 142.75L54.0111 146.9L58.427 142.75C59.1149 142.106 59.8028 141.552 60.3131 141.197C61.7555 140.242 63.5973 139.577 63.797 139.51C66.1048 138.756 68.7898 138.001 71.6302 137.225L71.6745 137.202C79.0417 135.161 87.3853 132.831 94.1977 128.992C98.3472 126.662 101.476 124.044 103.762 120.981C106.58 117.209 108 112.904 108 108.2V8.05506L103.651 6.56832ZM104.827 108.2C104.827 112.216 103.606 115.855 101.232 119.051C99.2127 121.736 96.4167 124.088 92.6665 126.196C86.1648 129.835 78.021 132.099 70.8313 134.096H70.7869C67.9022 134.895 65.1506 135.649 62.7762 136.448C62.7541 136.448 60.4685 137.247 58.5601 138.489C57.8722 138.955 57.0733 139.599 56.2301 140.376L54.0111 142.439L51.8143 140.376C50.971 139.599 50.1722 138.933 49.4843 138.489C47.5537 137.225 45.2681 136.448 45.2459 136.448C42.8716 135.671 40.1422 134.895 37.2353 134.096H37.1909C30.0012 132.099 21.8574 129.835 15.3779 126.196C11.6277 124.088 8.83172 121.758 6.81241 119.051C4.41586 115.855 3.21759 112.216 3.21759 108.2V10.385L5.41442 9.65276C6.19108 9.38648 24.8531 3.23978 54.0111 3.23978C83.1691 3.23978 101.831 9.38648 102.608 9.65276L104.805 10.385V108.2H104.827Z" fill="#480024"/>
</svg>
