<svg width="202" height="53" viewBox="0 0 202 53" fill="none" xmlns="http://www.w3.org/2000/svg">
<path fill-rule="evenodd" clip-rule="evenodd" d="M113.411 18.8409L117.324 14.9276C120.74 11.5254 120.74 5.98508 117.324 2.56856C115.67 0.914279 113.479 0.0130054 111.152 0.0130054C108.825 0.0130054 106.62 0.927284 104.98 2.56856L101.066 6.48188L101.053 6.46888L101.047 6.47538L97.127 2.55556C95.4727 0.901273 93.28 0 90.9547 0C88.6293 0 86.4223 0.914278 84.7823 2.55556C81.3658 5.97077 81.3658 11.5124 84.7823 14.9146L88.6956 18.8279L84.7823 22.7412C83.128 24.3955 82.2268 26.5869 82.2268 28.9136C82.2268 31.2402 83.141 33.4459 84.7823 35.0859C86.4366 36.7402 88.6293 37.6415 90.9547 37.6415C93.28 37.6415 95.4871 36.7272 97.127 35.0859L101.047 31.1661L104.98 35.1002C106.634 36.7545 108.827 37.6558 111.152 37.6558C113.477 37.6558 115.684 36.7415 117.324 35.1002C118.979 33.4459 119.88 31.2545 119.88 28.9279C119.88 26.6012 118.966 24.3955 117.324 22.7555L113.411 18.8422V18.8409ZM106.62 4.19554C107.829 2.98474 109.443 2.32666 111.152 2.32666C112.861 2.32666 114.474 2.98604 115.684 4.19554C118.185 6.69647 118.185 10.7581 115.684 13.2603L111.765 17.1801L102.7 8.11666L106.621 4.19684L106.62 4.19554ZM101.052 27.8783L92.0016 18.8279L101.052 9.77745L110.103 18.8279L101.052 27.8783ZM86.4197 13.2603C83.9188 10.7724 83.9188 6.71078 86.4197 4.19554C87.6305 2.98474 89.2445 2.32666 90.9521 2.32666C92.6597 2.32666 94.2737 2.98604 95.4845 4.19554L99.4043 8.11536L90.3408 17.1788L86.421 13.259L86.4197 13.2603ZM95.4845 33.459C94.2737 34.6698 92.6597 35.3278 90.9521 35.3278C89.2445 35.3278 87.6305 34.6685 86.4197 33.459C85.2102 32.2481 84.5508 30.6355 84.5508 28.9266C84.5508 27.2177 85.2102 25.605 86.4197 24.3942L90.3538 20.4601L99.4173 29.5235L95.4845 33.4577V33.459ZM115.683 33.459C114.474 34.6698 112.86 35.3278 111.151 35.3278C109.442 35.3278 107.829 34.6685 106.618 33.459L102.684 29.5261L111.749 20.4627L115.682 24.3955C116.893 25.6063 117.552 27.2203 117.552 28.9279C117.552 30.6355 116.893 32.2495 115.682 33.4603L115.683 33.459Z" fill="#C34813"/>
<path d="M8.37807 18.6263L13.8377 26.5062H10.8517L6.88505 20.724L2.9041 26.5062H0L5.43365 18.6796L0.254906 11.1482H3.24094L6.93967 16.5818L10.719 11.1482H13.5971L8.39237 18.625H8.37937L8.37807 18.6263Z" fill="white"/>
<path d="M28.0931 11.1482L33.9962 26.5192H31.347L29.7734 22.2691H23.8962L22.3226 26.5192H19.6864L25.5895 11.1482H28.0931ZM24.7169 19.997H28.9267L26.8159 14.3085L24.7052 19.997H24.7182H24.7169Z" fill="white"/>
<path d="M43.8817 20.7774V26.5062H41.2728V11.1482H47.2162C50.3896 11.1482 52.4743 12.8025 52.4743 15.9758C52.4743 19.1491 50.4039 20.7904 47.2162 20.7904H43.8817V20.7774ZM47.1772 13.3942H43.896V18.5313H47.1772C48.9798 18.5313 49.9071 17.4558 49.9071 15.9758C49.9071 14.4958 48.9928 13.4072 47.1772 13.4072V13.3942Z" fill="white"/>
<path d="M66.273 26.7755C62.1165 26.7755 59.1994 23.4266 59.1994 18.8279C59.1994 14.2292 62.1178 10.8933 66.273 10.8933C70.4282 10.8933 73.387 14.2279 73.387 18.8279C73.387 23.4279 70.4282 26.7755 66.273 26.7755ZM66.273 13.2329C63.5705 13.2329 61.8083 15.5869 61.8083 18.8409C61.8083 22.0948 63.5562 24.4488 66.273 24.4488C68.9898 24.4488 70.7508 22.0948 70.7508 18.8409C70.7508 15.5869 68.9755 13.2329 66.273 13.2329Z" fill="white"/>
<path d="M140.511 22.1091C140.511 24.9872 138.507 26.5062 135.307 26.5062H129.429V11.1482H134.809C138.009 11.1482 140.013 12.5736 140.013 15.3307C140.013 16.985 139.139 18.1815 138.01 18.5847C139.463 19.0555 140.511 20.4808 140.511 22.1078V22.1091ZM134.782 17.6041C136.571 17.6041 137.512 16.9317 137.512 15.479C137.512 14.0263 136.558 13.4085 134.782 13.4085H131.959V17.6184H134.782V17.6041ZM131.945 24.2602H135.253C137.001 24.2602 137.956 23.3862 137.956 22.0012C137.956 20.6161 137.001 19.7551 135.253 19.7551H131.945V24.2602Z" fill="white"/>
<path d="M155.115 11.1482L161.02 26.5192H158.37L156.797 22.2691H150.92L149.346 26.5192H146.71L152.613 11.1482H155.115ZM155.95 19.997L153.838 14.3085L151.727 19.997H155.95Z" fill="white"/>
<path d="M180.681 26.5062H178.677L170.823 15.3177V26.5062H168.322V11.1482H170.783L178.193 21.8126V11.1482H180.694V26.5192L180.681 26.5062Z" fill="white"/>
<path d="M191.775 17.833L197.934 11.1496H201.162L194.223 18.5054L201.39 26.5206H198.081L191.774 19.4873V26.5206H189.165V11.1496H191.774V17.833H191.775Z" fill="white"/>
<path d="M82.3254 51.954V46.1731H85.95V46.9235H83.1967V48.6844H85.7601V49.4322H83.1967V51.2023H85.9825V51.9527H82.3241L82.3254 51.954ZM90.3484 47.6908C90.3185 47.4229 90.1936 47.2161 89.9751 47.0691C89.7567 46.9209 89.4822 46.8467 89.1506 46.8467C88.9139 46.8467 88.7084 46.8845 88.5355 46.9599C88.3625 47.0327 88.2272 47.1355 88.1323 47.2642C88.0386 47.3917 87.9905 47.5386 87.9905 47.7012C87.9905 47.8391 88.023 47.9574 88.0868 48.0575C88.1518 48.1577 88.2376 48.2409 88.3443 48.3086C88.4509 48.3749 88.5654 48.4295 88.6889 48.475C88.8112 48.5179 88.9282 48.5543 89.0414 48.5817L89.6058 48.7286C89.7905 48.7741 89.979 48.8353 90.1741 48.912C90.3679 48.9887 90.5474 49.0902 90.7126 49.2163C90.879 49.3425 91.0117 49.4985 91.1131 49.6845C91.2172 49.8705 91.2692 50.0942 91.2692 50.353C91.2692 50.6807 91.1846 50.9708 91.0156 51.2257C90.8478 51.4793 90.6046 51.6795 90.2847 51.8265C89.9673 51.9735 89.5824 52.0463 89.1298 52.0463C88.6772 52.0463 88.3222 51.9774 88.0061 51.8408C87.6901 51.703 87.443 51.5092 87.2635 51.2569C87.0841 51.0033 86.9865 50.7015 86.967 50.353H87.8423C87.8592 50.5624 87.9268 50.7354 88.0452 50.8758C88.1661 51.0137 88.3196 51.1151 88.5055 51.184C88.6928 51.2504 88.8996 51.2829 89.1233 51.2829C89.3704 51.2829 89.5889 51.2439 89.7814 51.1671C89.9752 51.0878 90.1273 50.9786 90.2379 50.8394C90.3497 50.6976 90.4043 50.5338 90.4043 50.3452C90.4043 50.1735 90.3549 50.0344 90.2574 49.9251C90.1611 49.8159 90.0311 49.7261 89.8659 49.6546C89.702 49.5831 89.5161 49.5207 89.3093 49.466L88.6265 49.2801C88.1635 49.1539 87.7954 48.9692 87.5249 48.7234C87.2557 48.4789 87.1218 48.1551 87.1218 47.7519C87.1218 47.419 87.2128 47.1277 87.3936 46.8793C87.5744 46.6309 87.8189 46.4384 88.1271 46.3005C88.4353 46.1614 88.7839 46.0911 89.1714 46.0911C89.559 46.0911 89.9088 46.1601 90.2079 46.2966C90.5084 46.4345 90.7464 46.6231 90.9193 46.8637C91.0923 47.1029 91.182 47.3774 91.1911 47.6882H90.3497L90.3484 47.6908ZM92.1054 46.9235V46.1731H96.5793V46.9235H94.7754V51.954H93.9054V46.9235H92.1041H92.1054ZM97.8642 52.0073C97.7094 52.0073 97.5781 51.9527 97.4662 51.8434C97.3557 51.7329 97.2998 51.5989 97.2998 51.4428C97.2998 51.2868 97.3557 51.1567 97.4662 51.0475C97.5781 50.9369 97.7107 50.881 97.8642 50.881C98.0177 50.881 98.1516 50.9369 98.2622 51.0475C98.3727 51.1567 98.4286 51.2881 98.4286 51.4428C98.4286 51.5469 98.4026 51.6418 98.3493 51.7277C98.2986 51.8122 98.231 51.8798 98.1464 51.9305C98.0619 51.9813 97.967 52.0073 97.8642 52.0073ZM101.718 51.954V51.3219L103.674 49.2957C103.882 49.0759 104.055 48.8821 104.19 48.7169C104.328 48.5491 104.429 48.3905 104.498 48.2396C104.566 48.0888 104.6 47.9288 104.6 47.7597C104.6 47.5672 104.554 47.4021 104.464 47.2629C104.373 47.1212 104.251 47.0132 104.095 46.9378C103.939 46.861 103.762 46.822 103.567 46.822C103.36 46.822 103.18 46.865 103.025 46.9495C102.87 47.034 102.752 47.1537 102.67 47.3084C102.586 47.4632 102.545 47.644 102.545 47.8508H101.713C101.713 47.4983 101.793 47.1914 101.956 46.9274C102.117 46.6634 102.339 46.4592 102.622 46.3148C102.904 46.1679 103.225 46.095 103.584 46.095C103.943 46.095 104.267 46.1679 104.544 46.3122C104.822 46.4553 105.039 46.6504 105.195 46.9001C105.351 47.1472 105.429 47.4255 105.429 47.735C105.429 47.9496 105.389 48.159 105.308 48.3645C105.229 48.57 105.091 48.7989 104.894 49.0499C104.696 49.2996 104.422 49.6039 104.069 49.9615L102.919 51.1645V51.2074H105.522V51.9553H101.716L101.718 51.954ZM108.685 52.0502C108.239 52.0489 107.858 51.9306 107.542 51.6978C107.225 51.465 106.984 51.1242 106.816 50.6781C106.648 50.232 106.565 49.6949 106.565 49.0668C106.565 48.4386 106.648 47.9041 106.816 47.4606C106.985 47.0158 107.228 46.6777 107.544 46.4449C107.861 46.2121 108.243 46.095 108.685 46.095C109.127 46.095 109.507 46.2121 109.823 46.4475C110.139 46.6803 110.381 47.0197 110.548 47.4632C110.717 47.9054 110.802 48.4399 110.802 49.0668C110.802 49.6936 110.719 50.2359 110.551 50.682C110.383 51.1268 110.143 51.4663 109.825 51.7017C109.509 51.9345 109.129 52.0515 108.685 52.0515V52.0502ZM108.685 51.2959C109.076 51.2959 109.382 51.1047 109.603 50.7224C109.824 50.34 109.936 49.7886 109.936 49.0655C109.936 48.5856 109.885 48.1798 109.784 47.8482C109.684 47.5152 109.539 47.2629 109.352 47.0912C109.166 46.9183 108.944 46.8311 108.686 46.8311C108.296 46.8311 107.992 47.0236 107.769 47.4073C107.547 47.7909 107.435 48.3437 107.432 49.0642C107.432 49.5454 107.483 49.9537 107.582 50.2867C107.683 50.6183 107.828 50.8693 108.014 51.041C108.2 51.21 108.423 51.2946 108.685 51.2946V51.2959ZM114.077 46.1731V51.954H113.201V47.0483H113.168L111.784 47.9522V47.1173L113.226 46.1744H114.075L114.077 46.1731ZM117.733 52.0333C117.345 52.0333 116.999 51.967 116.693 51.833C116.39 51.6991 116.15 51.5144 115.973 51.2764C115.799 51.0371 115.704 50.7601 115.691 50.4466H116.576C116.588 50.6183 116.645 50.7666 116.748 50.8927C116.853 51.0163 116.991 51.1125 117.16 51.1801C117.329 51.2478 117.518 51.2816 117.725 51.2816C117.952 51.2816 118.154 51.2426 118.329 51.1632C118.506 51.0839 118.644 50.9747 118.744 50.8329C118.844 50.6898 118.894 50.5247 118.894 50.3387C118.894 50.1527 118.844 49.9745 118.744 49.8276C118.647 49.6793 118.502 49.5623 118.313 49.4777C118.124 49.3932 117.896 49.3503 117.63 49.3503H117.142V48.6389H117.63C117.844 48.6389 118.033 48.5999 118.194 48.5231C118.358 48.4464 118.486 48.3385 118.578 48.2019C118.67 48.0627 118.716 47.9002 118.716 47.7129C118.716 47.5256 118.675 47.3787 118.595 47.2473C118.517 47.1134 118.402 47.0093 118.257 46.9339C118.112 46.8585 117.941 46.8207 117.743 46.8207C117.545 46.8207 117.379 46.8558 117.215 46.9248C117.054 46.9924 116.921 47.0899 116.82 47.2187C116.718 47.3449 116.663 47.4957 116.656 47.6726H115.812C115.821 47.3605 115.913 47.086 116.087 46.848C116.264 46.6113 116.498 46.4254 116.788 46.2914C117.078 46.1575 117.4 46.0911 117.753 46.0911C118.107 46.0911 118.444 46.164 118.713 46.3083C118.984 46.4514 119.193 46.6426 119.34 46.8819C119.488 47.1212 119.561 47.3826 119.56 47.6661C119.561 47.9899 119.471 48.2643 119.289 48.4906C119.109 48.7169 118.868 48.8678 118.566 48.9445V48.99C118.95 49.0486 119.248 49.2007 119.458 49.4478C119.67 49.6949 119.777 50.0006 119.774 50.3647C119.776 50.6833 119.687 50.9682 119.509 51.2205C119.332 51.4728 119.09 51.6717 118.783 51.8161C118.476 51.9592 118.125 52.0307 117.73 52.0307L117.733 52.0333Z" fill="white"/>
</svg>
